<svg width="512" height="512" viewBox="0 0 512 512" fill="none" xmlns="http://www.w3.org/2000/svg">
<circle cx="256" cy="256" r="256" fill="white"/>
<path d="M65.0479 140.959L145.328 141.106L173.954 141.083C178.466 141.075 184.633 140.884 189.041 141.123C191.701 145.868 195.705 151.861 198.653 156.624L216.132 184.955L258.615 254.165L272.301 276.426C274.573 280.041 278.637 285.94 280.45 289.595C281.15 290.338 287.755 300.874 287.937 301.486C289.574 303.975 292.636 308.781 293.998 311.394C295.422 313.228 297.134 316.099 298.414 318.143L305.612 329.689C308.386 334.067 311.129 338.466 313.842 342.882C314.42 343.825 316.625 347.312 316.917 348.173C318.365 350.125 322.207 356.771 323.194 358.818C317.787 368.031 312.286 377.189 306.696 386.29C304.758 389.438 302.63 393.708 300.399 396.462C297.437 399.923 293.682 403.327 289.786 405.65C271.087 416.8 243.258 414.851 228.201 398.299C223.821 393.484 220.534 387.668 217.096 382.215L205.971 364.786L153.946 282.303C149.586 275.097 145.126 267.953 140.567 260.871C140.436 260.497 139.112 258.509 138.831 258.043C135.966 253.304 132.889 248.684 129.953 243.989L104.583 203.692L93.8563 186.79C91.6636 183.376 88.7913 179.239 86.8128 175.803C86.4169 175.342 85.9115 174.38 85.5939 173.823C81.3375 166.792 77.0214 159.797 72.6464 152.839C70.2956 149.138 67.0867 144.655 65.0479 140.959Z" fill="#60AF61"/>
<path d="M65.0479 140.959L145.328 141.106L173.954 141.083C178.466 141.075 184.633 140.884 189.041 141.123C191.701 145.868 195.705 151.861 198.653 156.624L216.133 184.955L258.615 254.165L272.301 276.426C274.573 280.04 278.637 285.94 280.45 289.594L195.784 239.401C195.197 239.19 192.009 237.207 191.311 236.774C190.078 236.3 185.675 233.555 184.342 232.739C181.498 230.999 178.492 229.107 175.611 227.41C173.75 226.315 170.73 224.327 168.869 223.4C168.049 222.743 165.007 221.002 163.992 220.4L153.706 214.32C150.988 212.229 147.224 210.667 144.021 208.27C143.467 208.225 141.691 207.001 140.763 206.581C139.131 205.458 136.506 203.971 134.763 202.99C134.132 202.583 133.505 202.168 132.882 201.747C132.298 201.377 131.811 201.298 131.278 200.769C130.257 200.077 129.406 199.721 128.174 198.832C127.546 198.576 127.061 198.298 126.47 197.976C121.547 194.612 115.516 191.225 110.369 188.139C108.805 187.308 104.471 184.876 103.095 183.8C101.407 182.937 98.718 181.065 96.8055 179.976C95.3163 179.148 89.4692 175.758 88.5236 175.398C87.4915 174.925 86.7082 173.666 85.5939 173.823C81.3375 166.792 77.0214 159.797 72.6464 152.839C70.2956 149.138 67.0867 144.655 65.0479 140.959Z" fill="#B8E178"/>
<path d="M110.369 188.138L110.616 187.15L110.876 187.079L111.556 187.496L111.16 188.116C111.546 188.466 111.327 188.396 111.777 188.461C112.173 188.245 112.502 187.959 112.938 188.161C114.679 188.967 117.149 190.547 118.657 191.639C118.803 192.251 118.791 192.004 118.604 192.645C119.944 193.993 122.229 193.719 122.523 194.171L121.798 194.445L121.873 194.748C122.356 194.981 122.437 195.063 122.959 195.133L123.405 194.672C124.688 194.688 125.562 195.984 126.783 196.855C126.95 196.977 127.119 197.097 127.288 197.215C127.128 197.736 127.091 197.607 126.47 197.976C121.547 194.612 115.516 191.225 110.369 188.138Z" fill="#B8E178"/>
<path d="M144.021 208.27L144.199 207.962C145.825 207.703 153.482 212.167 154.076 213.853L154.015 214.194L153.706 214.32C150.988 212.229 147.224 210.667 144.021 208.27Z" fill="#B8E178"/>
<path d="M96.8056 179.976L96.9166 179.677C99.3489 180.871 98.2648 180.761 101.281 181.598L101.2 181.53C102.284 181.867 102.753 181.955 103.664 182.676L103.852 183.04C103.392 183.321 103.302 183.292 103.095 183.8C101.407 182.937 98.7181 181.065 96.8056 179.976Z" fill="#B8E178"/>
<path d="M128.174 198.832L128.835 198.325C130.247 198.53 131.969 199.528 133.176 200.286L133.036 200.508C131.975 200.524 132.301 200.295 131.278 200.768C130.257 200.077 129.406 199.72 128.174 198.832Z" fill="#B8E178"/>
<path d="M132.882 201.747L132.603 201.241L132.705 201.27L132.924 200.977C134.017 200.701 135.353 201.407 135.983 202.291L135.916 202.651C135.374 202.99 135.409 202.961 134.763 202.99C134.132 202.583 133.505 202.168 132.882 201.747Z" fill="#B8E178"/>
<path d="M153.946 282.303C155.554 281.713 159.61 284.962 161.251 285.821C166.128 288.37 170.617 291.71 175.276 294.633C179.527 297.476 183.377 299.965 188.003 302.302C188.525 302.565 191.153 303.209 191.918 303.456C194.12 304.165 196.347 304.85 198.523 305.668L286.843 338.585C291.692 340.369 313.105 349.127 316.591 349.177L316.878 348.967L316.917 348.173C318.365 350.125 322.207 356.771 323.194 358.818C317.787 368.03 312.286 377.188 306.696 386.29C304.758 389.438 302.63 393.708 300.399 396.462C297.437 399.923 293.682 403.327 289.786 405.65C271.087 416.8 243.258 414.851 228.201 398.299C223.821 393.484 220.534 387.668 217.096 382.215L205.971 364.786L153.946 282.303Z" fill="#166553"/>
<path d="M85.594 173.823C86.7083 173.666 87.4916 174.925 88.5238 175.398C89.4693 175.758 95.3164 179.148 96.8056 179.976C98.7181 181.065 101.407 182.937 103.095 183.8C104.471 184.876 108.806 187.308 110.369 188.139C115.516 191.225 121.547 194.612 126.47 197.976C127.061 198.298 127.546 198.576 128.174 198.832C129.406 199.721 130.257 200.077 131.278 200.769C131.811 201.298 132.298 201.377 132.882 201.747C133.505 202.168 134.132 202.583 134.763 202.99C136.506 203.971 139.131 205.457 140.764 206.581C141.691 207.001 143.467 208.225 144.021 208.27C147.224 210.667 150.988 212.229 153.707 214.32L163.992 220.4C165.008 221.002 168.05 222.743 168.869 223.4C167.287 223.397 162.997 220.525 161.409 219.633L161.69 219.749C160.028 218.54 157.524 217.181 155.674 215.956C153.758 216.741 153.202 214.61 152.856 214.37C150.806 212.95 148.394 211.634 146.216 210.361C146.046 210.858 146.175 211.13 146.298 211.653L146.351 211.87L146.102 212.068L145.724 211.939C145.286 210.244 144.376 211.505 142.75 210.91C142.44 209.727 143.573 209.308 143.001 208.295C142.406 208.048 142.194 208.093 141.558 208.102L141.338 208.106L141.247 207.372C140.837 206.988 140.813 207.095 140.162 206.971C140.488 207.838 140.924 207.393 141.101 208.251C141.302 209.232 140.634 209.61 141.114 210.614C141.747 210.869 141.824 210.887 142.497 211.015L142.777 211.412L142.668 211.786C140.527 212.906 140.359 209.74 138.165 208.866L137.391 209.494C136.356 209.382 135.048 209.288 134.342 208.504C134.134 207.898 134.159 207.865 134.128 207.214C133.292 206.701 132.509 206.887 131.513 207.032C131.467 207.775 131.45 208.813 131.949 209.404L132.181 209.419C132.734 209.459 133.214 209.41 133.486 209.95C133.958 210.887 134.476 213.103 134.335 214.095C132.963 216.223 128.424 213.512 127.268 214.936C128.081 215.672 128.615 214.88 128.607 217.044C128.601 218.458 128.823 223.075 128.448 224.133L128.065 224.428L128.25 224.356L127.835 224.244L127.838 223.927C127.837 223.537 127.824 223.353 127.784 222.972L127.463 222.873C126.882 223.258 126.709 223.315 126.371 223.937C126.511 224.42 126.737 224.529 127.127 224.868L127.149 225.332C126.821 225.519 126.743 225.564 126.469 225.837L126.643 226.347C127.642 226.327 127.672 224.924 128.856 226.188C129.506 226.881 130.003 227.886 129.975 228.846L129.735 229.081C128.701 228.82 128.701 227.729 127.673 227.52C127.252 228.084 127.383 228.145 127.299 228.975C127.485 229.264 128.583 230.365 128.566 230.264C128.968 232.653 128.479 235.191 129.872 237.473C130.82 239.025 134.507 244.158 134.37 245.809C133.997 246.366 133.55 246.523 132.954 246.845C132.469 247.735 133.149 248.695 133.938 249.088C134.869 248.984 136.992 248.889 137.605 248.448C138.445 249.755 139.972 253.473 139.657 255.034L139.359 255.366C138.362 255.266 138.369 254.364 137.071 253.834C137.111 255.025 139.855 258.152 140.658 259.697L140.703 259.582C141.147 260.325 141.156 260.202 140.567 260.871C140.436 260.497 139.112 258.509 138.831 258.043C135.966 253.304 132.89 248.684 129.953 243.989L104.583 203.692L93.8564 186.79C91.6637 183.375 88.7914 179.239 86.8129 175.803C86.417 175.342 85.9116 174.38 85.594 173.823Z" fill="#60AF61"/>
<path d="M375.754 102.641C376.693 104.193 387.536 113.243 389.82 115.291C407.635 131.426 425.603 147.391 443.724 163.184C441.64 168.118 438.648 172.656 435.961 177.313L424.549 197.192L389.1 257.999C386.177 263.012 382.966 268.101 380.049 273.141C379.003 274.949 376.487 278.749 375.722 280.424C375.679 280.256 375.643 280.087 375.609 279.917C375.064 277.228 375.261 267.525 375.277 264.49L375.321 239.158L375.396 131.941C375.321 124.736 375.301 117.53 375.338 110.325C375.342 108.819 375.087 103.648 375.754 102.641Z" fill="#424D53"/>
<path d="M329.694 128.101C330.572 127.595 331.62 127.066 332.526 126.585C332.636 127.282 332.69 126.95 332.29 127.601C331.357 128.177 330.797 128.156 329.694 128.101Z" fill="#171E22"/>
<path d="M265.82 227.555L266.113 227.233C266.677 227.421 266.578 227.473 267.027 227.986L267.175 228.785L266.596 229.102L265.82 227.555Z" fill="#171E22"/>
<path fill-rule="evenodd" clip-rule="evenodd" d="M365.916 304.556L365.918 304.553C366.27 303.958 366.625 303.357 366.977 302.762" fill="#363F46"/>
<path fill-rule="evenodd" clip-rule="evenodd" d="M309.787 138.21C305.953 140.433 302.02 142.713 298.248 144.699C298.405 146.961 298.387 149.621 298.37 152.085L298.37 152.086L298.37 152.088C298.365 152.798 298.36 153.492 298.36 154.156L298.356 169.089L298.341 184.301C298.342 184.377 298.345 184.588 298.349 184.899L298.349 184.901C298.379 186.964 298.473 193.389 298.232 193.612C296.985 194.759 294.477 196.016 292.255 197.13C291.059 197.73 289.946 198.287 289.157 198.764C288.283 199.293 285.098 200.994 281.085 203.138L281.084 203.138C271.898 208.046 258.374 215.27 258.298 216.046C259.501 218.172 261.197 220.756 262.788 223.183C263.545 224.337 264.279 225.455 264.925 226.472L276.254 244.635L317.683 311.575L332.753 335.853C333.076 336.373 333.56 337.136 334.129 338.033L334.13 338.034L334.138 338.048L334.141 338.053L334.142 338.054C336.181 341.268 339.3 346.183 340.026 347.818L340.281 347.832C341.57 346.154 343.756 342.413 345.392 339.615L345.394 339.612C345.867 338.802 346.295 338.071 346.641 337.492C351.316 329.657 355.916 321.78 360.44 313.858C362.252 310.753 364.08 307.661 365.91 304.566L365.911 304.564L365.914 304.559L365.916 304.556L365.918 304.553C368.74 299.78 371.564 295.004 374.316 290.199C374.671 289.578 375.248 288.633 375.871 287.61C376.952 285.839 378.172 283.837 378.625 282.899L378.645 98.7717L378.133 98.6565L377.967 98.7704C376.222 99.953 373.627 101.407 371.289 102.718C370.283 103.282 369.325 103.819 368.502 104.297L347.262 116.527L313.985 135.787C312.608 136.575 311.204 137.389 309.787 138.21ZM336.739 179.402H323.895V160.921H336.739V179.402ZM347.926 179.402V160.783H360.769V179.402H347.926ZM323.895 209.192V190.987H336.739V209.192H323.895ZM347.926 190.987H360.769V209.192H347.926V190.987Z" fill="#363F46"/>
<path d="M378.625 282.899C381.024 279.281 383.407 275.108 385.734 271.034C387.056 268.719 388.36 266.436 389.638 264.305L418.662 214.823C425.492 203.338 432.19 191.776 438.757 180.139C439.282 179.229 439.936 178.127 440.659 176.91L440.971 176.384L440.973 176.381C443.872 171.503 447.711 165.043 449.048 161.628C448.131 160.562 445.423 158.24 443.775 156.827L443.771 156.824L443.762 156.816C443.456 156.553 443.186 156.322 442.973 156.137C438.718 152.527 434.494 148.884 430.297 145.209L392.167 111.045C391.688 110.623 390.857 109.919 389.834 109.053C386.037 105.835 379.592 100.374 378.645 98.7717L378.625 282.899Z" fill="#363F46"/>
<path d="M378.645 98.7715C379.847 100.805 389.909 109.058 392.167 111.045L430.297 145.209C434.495 148.884 438.719 152.527 442.973 156.137C444.335 157.316 447.958 160.36 449.048 161.628C447.321 166.041 441.411 175.544 438.757 180.139C432.19 191.776 425.492 203.338 418.662 214.823L389.638 264.305C386.11 270.188 382.388 277.224 378.625 282.899C378.692 281.527 378.554 279.443 378.528 278.012C378.504 275.275 378.497 272.538 378.51 269.801L378.52 236.219L378.568 136.838C378.611 124.266 378.37 111.275 378.645 98.7715Z" fill="#4F5A61"/>
</svg>
