<svg width="32" height="32" viewBox="0 0 32 32" fill="none" xmlns="http://www.w3.org/2000/svg">
<circle cx="16" cy="16" r="16" fill="white"/>
<path d="M4.0655 8.80981L9.08301 8.81899L10.8721 8.81757C11.1541 8.81702 11.5395 8.8051 11.8151 8.82003C11.9813 9.1166 12.2316 9.49117 12.4158 9.78887L13.5083 11.5595L16.1635 15.8852L17.0188 17.2765C17.1608 17.5024 17.4148 17.8711 17.5281 18.0995C17.5719 18.146 17.9847 18.8045 17.9961 18.8427C18.0984 18.9983 18.2898 19.2987 18.3749 19.462C18.4639 19.5766 18.5709 19.756 18.6509 19.8838L19.1008 20.6054C19.2741 20.8791 19.4456 21.154 19.6151 21.43C19.6513 21.4889 19.7891 21.7069 19.8073 21.7607C19.8978 21.8827 20.1379 22.2981 20.1996 22.426C19.8617 23.0018 19.5179 23.5741 19.1685 24.143C19.0474 24.3397 18.9144 24.6066 18.7749 24.7787C18.5898 24.995 18.3551 25.2078 18.1116 25.353C16.943 26.0499 15.2036 25.928 14.2625 24.8935C13.9888 24.5926 13.7833 24.2291 13.5685 23.8883L12.8732 22.799L9.62165 17.6438C9.34914 17.1934 9.07038 16.7469 8.78546 16.3043C8.77727 16.2809 8.69451 16.1567 8.67692 16.1276C8.49789 15.8314 8.30559 15.5426 8.12207 15.2492L6.53645 12.7306L5.86602 11.6743C5.72897 11.4608 5.54945 11.2023 5.4258 10.9875C5.40105 10.9588 5.36947 10.8986 5.34962 10.8638C5.08359 10.4244 4.81384 9.9872 4.5404 9.55232C4.39348 9.321 4.19292 9.04081 4.0655 8.80981Z" fill="#60AF61"/>
<path d="M4.0655 8.80981L9.08301 8.81899L10.8721 8.81757C11.1541 8.81702 11.5395 8.8051 11.8151 8.82003C11.9813 9.1166 12.2316 9.49117 12.4158 9.78887L13.5083 11.5595L16.1635 15.8852L17.0188 17.2765C17.1608 17.5024 17.4148 17.8711 17.5281 18.0995L12.2365 14.9624C12.1998 14.9492 12.0006 14.8253 11.9569 14.7982C11.8799 14.7686 11.6047 14.597 11.5214 14.5461C11.3437 14.4373 11.1558 14.319 10.9757 14.213C10.8594 14.1445 10.6706 14.0203 10.5543 13.9623C10.5031 13.9213 10.313 13.8125 10.2495 13.7748L9.60665 13.3949C9.43676 13.2642 9.20152 13.1666 9.0013 13.0167C8.96671 13.0139 8.85567 12.9374 8.79771 12.9111C8.69566 12.841 8.53161 12.748 8.42271 12.6868C8.38325 12.6613 8.34405 12.6354 8.30515 12.6091C8.2686 12.5859 8.23816 12.581 8.20489 12.5479C8.14108 12.5047 8.08785 12.4824 8.01087 12.4269C7.97164 12.4108 7.94132 12.3935 7.9044 12.3734C7.59668 12.1631 7.21977 11.9514 6.89807 11.7585C6.80034 11.7066 6.52943 11.5546 6.44343 11.4874C6.33791 11.4334 6.16988 11.3165 6.05034 11.2484C5.95727 11.1966 5.59182 10.9847 5.53273 10.9622C5.46822 10.9327 5.41926 10.854 5.34962 10.8638C5.08359 10.4244 4.81384 9.9872 4.5404 9.55232C4.39348 9.321 4.19292 9.04081 4.0655 8.80981Z" fill="#B8E178"/>
<path d="M6.89807 11.7586L6.91347 11.6968L6.92977 11.6924L6.97225 11.7184L6.94752 11.7572C6.9716 11.7791 6.95795 11.7747 6.98606 11.7787C7.01084 11.7653 7.03135 11.7474 7.05864 11.76C7.16746 11.8104 7.32182 11.9091 7.41609 11.9774C7.42519 12.0156 7.42442 12.0002 7.41275 12.0403C7.49648 12.1245 7.63933 12.1074 7.65766 12.1356L7.61237 12.1528L7.61706 12.1717C7.64722 12.1862 7.6523 12.1914 7.68491 12.1957L7.71284 12.1669C7.79299 12.1679 7.84763 12.2489 7.92392 12.3034C7.93439 12.311 7.94492 12.3185 7.95553 12.3259C7.94548 12.3584 7.9432 12.3504 7.9044 12.3734C7.59668 12.1632 7.21977 11.9515 6.89807 11.7586Z" fill="#B8E178"/>
<path d="M9.0013 13.0167L9.01245 12.9975C9.11407 12.9813 9.59265 13.2604 9.62978 13.3657L9.62591 13.387L9.60665 13.3949C9.43676 13.2642 9.20152 13.1666 9.0013 13.0167Z" fill="#B8E178"/>
<path d="M6.05035 11.2484L6.05729 11.2297C6.20931 11.3044 6.14155 11.2975 6.33004 11.3498L6.32502 11.3455C6.39273 11.3666 6.42208 11.3721 6.47899 11.4172L6.49077 11.4399C6.46201 11.4575 6.45637 11.4557 6.44343 11.4874C6.33792 11.4335 6.16988 11.3165 6.05035 11.2484Z" fill="#B8E178"/>
<path d="M8.01087 12.427L8.0522 12.3953C8.14046 12.4081 8.24804 12.4705 8.32349 12.5178L8.31476 12.5317C8.24843 12.5327 8.2688 12.5184 8.20489 12.548C8.14107 12.5048 8.08784 12.4825 8.01087 12.427Z" fill="#B8E178"/>
<path d="M8.30514 12.6093L8.28767 12.5777L8.29409 12.5795L8.30772 12.5612C8.37605 12.5439 8.45954 12.5881 8.49892 12.6433L8.49474 12.6658C8.46085 12.687 8.46306 12.6852 8.4227 12.687C8.38324 12.6615 8.34405 12.6356 8.30514 12.6093Z" fill="#B8E178"/>
<path d="M9.62165 17.6438C9.72214 17.607 9.97562 17.81 10.0782 17.8637C10.383 18.023 10.6636 18.2318 10.9548 18.4145C11.2205 18.5921 11.4611 18.7477 11.7502 18.8938C11.7828 18.9102 11.9471 18.9505 11.9949 18.9659C12.1325 19.0102 12.2717 19.053 12.4077 19.1041L17.9277 21.1614C18.2307 21.2729 19.5691 21.8203 19.7869 21.8235L19.8049 21.8103L19.8073 21.7607C19.8978 21.8827 20.1379 22.2981 20.1996 22.426C19.8617 23.0018 19.5179 23.5742 19.1685 24.143C19.0474 24.3397 18.9144 24.6067 18.7749 24.7788C18.5898 24.9951 18.3551 25.2078 18.1116 25.353C16.943 26.0499 15.2036 25.9281 14.2625 24.8936C13.9888 24.5927 13.7833 24.2291 13.5685 23.8883L12.8732 22.799L9.62165 17.6438Z" fill="#166553"/>
<path d="M5.34963 10.8639C5.41927 10.854 5.46823 10.9327 5.53274 10.9623C5.59183 10.9848 5.95728 11.1967 6.05035 11.2484C6.16988 11.3165 6.33792 11.4335 6.44343 11.4874C6.52944 11.5547 6.80035 11.7066 6.89808 11.7586C7.21978 11.9515 7.59669 12.1632 7.90441 12.3734C7.94133 12.3936 7.97165 12.4109 8.01088 12.4269C8.08786 12.4825 8.14109 12.5048 8.2049 12.548C8.23817 12.581 8.26861 12.586 8.30515 12.6091C8.34406 12.6354 8.38325 12.6613 8.42272 12.6868C8.53162 12.7481 8.69567 12.841 8.79772 12.9112C8.85568 12.9375 8.96672 13.014 9.00131 13.0168C9.20153 13.1666 9.43677 13.2642 9.60666 13.3949L10.2495 13.7749C10.313 13.8125 10.5031 13.9213 10.5543 13.9624C10.4554 13.9623 10.1873 13.7828 10.0881 13.727L10.1056 13.7343C10.0018 13.6587 9.84524 13.5737 9.7296 13.4971C9.60987 13.5462 9.57514 13.413 9.55348 13.398C9.42537 13.3093 9.27465 13.2271 9.13851 13.1475C9.12786 13.1785 9.13596 13.1955 9.14366 13.2282L9.14694 13.2418L9.13135 13.2542L9.10775 13.2461C9.0804 13.1401 9.02349 13.219 8.92187 13.1818C8.9025 13.1079 8.97334 13.0817 8.93755 13.0184C8.90038 13.0029 8.88715 13.0058 8.84737 13.0063L8.83364 13.0066L8.82795 12.9607C8.80233 12.9367 8.80083 12.9433 8.76016 12.9356C8.78051 12.9898 8.80777 12.962 8.81878 13.0156C8.83137 13.0769 8.78965 13.1005 8.81961 13.1633C8.85919 13.1792 8.86397 13.1804 8.90604 13.1883L8.92354 13.2132L8.91675 13.2366C8.78294 13.3066 8.77242 13.1087 8.6353 13.054L8.58693 13.0933C8.52226 13.0863 8.44049 13.0804 8.3964 13.0314C8.38341 12.9935 8.38495 12.9915 8.38301 12.9508C8.33074 12.9187 8.28184 12.9303 8.21957 12.9394C8.21668 12.9858 8.2156 13.0507 8.24681 13.0877L8.26132 13.0886C8.29589 13.0911 8.32585 13.0881 8.34287 13.1218C8.37239 13.1804 8.40475 13.3189 8.39591 13.3809C8.31017 13.5139 8.0265 13.3444 7.95424 13.4334C8.00509 13.4795 8.03843 13.4299 8.03791 13.5652C8.03757 13.6535 8.05142 13.9421 8.02799 14.0082L8.00407 14.0267L8.01565 14.0222L7.98969 14.0152L7.98987 13.9954C7.98984 13.971 7.98899 13.9595 7.98649 13.9356L7.96644 13.9295C7.9301 13.9535 7.91931 13.9571 7.89821 13.996C7.90694 14.0262 7.92105 14.033 7.94544 14.0542L7.94683 14.0831C7.92632 14.0948 7.92142 14.0977 7.90433 14.1148L7.91519 14.1466C7.97763 14.1453 7.9795 14.0577 8.05353 14.1367C8.09411 14.18 8.12521 14.2428 8.12345 14.3028L8.10844 14.3175C8.04379 14.3011 8.04384 14.233 7.97956 14.2199C7.95327 14.2552 7.96142 14.259 7.95616 14.3108C7.96783 14.3289 8.03641 14.3977 8.03535 14.3915C8.06049 14.5407 8.02993 14.6994 8.11701 14.842C8.17622 14.939 8.4067 15.2598 8.39811 15.363C8.37481 15.3978 8.34689 15.4076 8.3096 15.4277C8.2793 15.4834 8.32183 15.5433 8.37115 15.5679C8.4293 15.5614 8.56199 15.5555 8.60029 15.5279C8.65281 15.6096 8.74826 15.842 8.72855 15.9396L8.70995 15.9603C8.64761 15.9541 8.64805 15.8976 8.56693 15.8646C8.56945 15.939 8.74092 16.1344 8.79111 16.231L8.79391 16.2238C8.82168 16.2703 8.82227 16.2625 8.78547 16.3044C8.77727 16.281 8.69452 16.1567 8.67693 16.1276C8.4979 15.8314 8.3056 15.5427 8.12208 15.2492L6.53646 12.7307L5.86603 11.6743C5.72898 11.4609 5.54946 11.2023 5.42581 10.9876C5.40106 10.9588 5.36948 10.8987 5.34963 10.8639Z" fill="#60AF61"/>
<path d="M23.4846 6.41504C23.5433 6.512 24.221 7.07764 24.3638 7.20562C25.4772 8.21408 26.6002 9.21191 27.7327 10.199C27.6025 10.5073 27.4155 10.791 27.2476 11.082L26.5343 12.3244L24.3188 16.1249C24.1361 16.4382 23.9354 16.7563 23.7531 17.0713C23.6877 17.1843 23.5304 17.4218 23.4826 17.5265C23.48 17.516 23.4777 17.5054 23.4755 17.4948C23.4415 17.3267 23.4538 16.7203 23.4548 16.5306L23.4576 14.9474L23.4623 8.24625C23.4576 7.79593 23.4563 7.3456 23.4586 6.89528C23.4588 6.80112 23.4429 6.47796 23.4846 6.41504Z" fill="#424D53"/>
<path d="M20.6059 8.00639C20.6608 7.97474 20.7263 7.94172 20.7829 7.91162C20.7897 7.95521 20.7931 7.93445 20.7681 7.97512C20.7098 8.01116 20.6748 8.00981 20.6059 8.00639Z" fill="#171E22"/>
<path d="M16.6137 14.2223L16.6321 14.2021C16.6673 14.2139 16.6611 14.2171 16.6892 14.2492L16.6984 14.2991L16.6623 14.3189L16.6137 14.2223Z" fill="#171E22"/>
<path fill-rule="evenodd" clip-rule="evenodd" d="M22.8698 19.0347L22.8699 19.0346C22.8919 18.9974 22.9141 18.9598 22.9361 18.9226" fill="#363F46"/>
<path fill-rule="evenodd" clip-rule="evenodd" d="M19.3617 8.63813C19.1221 8.77704 18.8763 8.91954 18.6405 9.04365C18.6503 9.18503 18.6492 9.35128 18.6481 9.5053L18.6481 9.50537L18.6481 9.50547C18.6478 9.54988 18.6475 9.59327 18.6475 9.63475L18.6472 10.5681L18.6463 11.5188C18.6464 11.5235 18.6465 11.5367 18.6468 11.5561L18.6468 11.5563C18.6487 11.6852 18.6546 12.0868 18.6395 12.1007C18.5616 12.1724 18.4048 12.251 18.2659 12.3206C18.1912 12.3581 18.1217 12.3929 18.0723 12.4228C18.0177 12.4558 17.8186 12.5621 17.5678 12.6961L17.5677 12.6961C16.9936 13.0028 16.1484 13.4543 16.1436 13.5029C16.2188 13.6357 16.3248 13.7973 16.4243 13.9489C16.4716 14.021 16.5174 14.0909 16.5578 14.1545L17.2659 15.2897L19.8552 19.4735L20.7971 20.9908C20.8172 21.0233 20.8475 21.071 20.8831 21.1271L20.8831 21.1271L20.8836 21.128L20.8838 21.1283L20.8839 21.1283C21.0113 21.3292 21.2062 21.6364 21.2516 21.7386L21.2675 21.7395C21.3481 21.6346 21.4848 21.4008 21.587 21.2259L21.5871 21.2258C21.6167 21.1751 21.6434 21.1294 21.6651 21.0932C21.9573 20.6036 22.2448 20.1112 22.5275 19.6161C22.6407 19.422 22.755 19.2288 22.8694 19.0353L22.8694 19.0353L22.8696 19.0349L22.8698 19.0347L22.8699 19.0346C23.0463 18.7362 23.2228 18.4377 23.3947 18.1374C23.4169 18.0986 23.453 18.0395 23.492 17.9756C23.5595 17.8649 23.6357 17.7398 23.664 17.6812L23.6653 6.17321L23.6333 6.16602L23.623 6.17314C23.5139 6.24705 23.3517 6.33794 23.2056 6.41987C23.1427 6.45511 23.0828 6.48869 23.0314 6.51854L21.7039 7.28294L19.6241 8.48665C19.538 8.53591 19.4503 8.58678 19.3617 8.63813ZM21.0462 11.2126H20.2435V10.0575H21.0462V11.2126ZM21.7453 11.2126V10.0489H22.5481V11.2126H21.7453ZM20.2435 13.0745V11.9367H21.0462V13.0745H20.2435ZM21.7453 11.9367H22.5481V13.0745H21.7453V11.9367Z" fill="#363F46"/>
<path d="M23.664 17.6812C23.814 17.455 23.963 17.1942 24.1084 16.9396C24.191 16.7949 24.2725 16.6523 24.3524 16.519L26.1664 13.4264C26.5932 12.7086 27.0119 11.986 27.4223 11.2587C27.4552 11.2018 27.496 11.1329 27.5412 11.0569L27.5607 11.024L27.5608 11.0238C27.742 10.7189 27.982 10.3151 28.0655 10.1018C28.0082 10.0351 27.8389 9.88996 27.7359 9.80165L27.7357 9.80146L27.7351 9.80099C27.716 9.78456 27.6992 9.77013 27.6858 9.75857C27.4199 9.53291 27.1559 9.30522 26.8935 9.07553L24.5104 6.94029C24.4805 6.91394 24.4286 6.86995 24.3646 6.81578C24.1273 6.61469 23.7245 6.27333 23.6653 6.17321L23.664 17.6812Z" fill="#363F46"/>
<path d="M23.6653 6.1731C23.7404 6.30018 24.3693 6.816 24.5104 6.94018L26.8936 9.07541C27.1559 9.30511 27.4199 9.53279 27.6858 9.75845C27.7709 9.83215 27.9974 10.0224 28.0655 10.1016C27.9575 10.3775 27.5882 10.9714 27.4223 11.2586C27.0119 11.9859 26.5933 12.7085 26.1664 13.4263L24.3524 16.5189C24.1319 16.8866 23.8992 17.3264 23.6641 17.6811C23.6682 17.5953 23.6596 17.465 23.658 17.3756C23.6565 17.2045 23.6561 17.0335 23.6569 16.8625L23.6575 14.7635L23.6605 8.55228C23.6632 7.7665 23.6481 6.95456 23.6653 6.1731Z" fill="#4F5A61"/>
</svg>
